<?xml version="1.0" standalone="no"?>
<!DOCTYPE svg PUBLIC "-//W3C//DTD SVG 20010904//EN"
 "http://www.w3.org/TR/2001/REC-SVG-20010904/DTD/svg10.dtd">
<svg version="1.0" xmlns="http://www.w3.org/2000/svg"
 width="512.000000pt" height="512.000000pt" viewBox="0 0 512.000000 512.000000"
 preserveAspectRatio="xMidYMid meet">

<g transform="translate(0.000000,512.000000) scale(0.100000,-0.100000)"
fill="#000000" stroke="none">
<path d="M2486 5106 c-21 -8 -50 -25 -65 -39 -14 -13 -548 -498 -1186 -1077
-638 -579 -1168 -1062 -1178 -1074 -77 -89 -73 -210 8 -291 88 -88 209 -85
313 9 21 20 42 36 46 36 3 0 6 -564 6 -1252 0 -1190 1 -1255 19 -1293 23 -51
79 -101 128 -114 24 -7 234 -11 585 -11 l547 0 4 932 c3 1050 -3 968 82 1145
106 218 293 377 530 449 80 24 106 27 235 27 129 0 155 -3 235 -27 237 -72
424 -231 530 -449 85 -177 79 -95 82 -1144 l4 -933 547 0 c351 0 561 4 585 11
49 13 105 63 128 114 18 38 19 103 19 1293 0 688 3 1252 6 1252 4 0 25 -16 46
-36 84 -75 165 -91 254 -50 126 59 162 212 75 321 -32 42 -2384 2176 -2415
2192 -41 21 -124 26 -170 9z"/>
<path d="M2445 2117 c-141 -47 -245 -148 -293 -285 -14 -42 -16 -141 -19 -939
l-4 -893 431 0 431 0 -4 893 c-3 798 -5 897 -19 939 -41 117 -124 208 -236
261 -57 27 -80 32 -157 34 -55 2 -105 -2 -130 -10z"/>
</g>
</svg>
