<?xml version="1.0" standalone="no"?>
<!DOCTYPE svg PUBLIC "-//W3C//DTD SVG 20010904//EN"
 "http://www.w3.org/TR/2001/REC-SVG-20010904/DTD/svg10.dtd">
<svg version="1.0" xmlns="http://www.w3.org/2000/svg"
 width="512.000000pt" height="512.000000pt" viewBox="0 0 512.000000 512.000000"
 preserveAspectRatio="xMidYMid meet">
<metadata>
Created by potrace 1.16, written by Peter Selinger 2001-2019
</metadata>
<g transform="translate(0.000000,512.000000) scale(0.100000,-0.100000)"
fill="#000000" stroke="none">
<path d="M1502 5110 c-265 -16 -454 -53 -645 -130 -182 -73 -299 -154 -449
-308 -148 -152 -232 -293 -303 -506 -70 -210 -92 -383 -102 -799 l-6 -279 228
-228 c126 -126 232 -227 237 -224 4 3 8 173 8 377 0 595 19 814 85 1010 43
126 99 221 189 314 193 204 397 280 817 303 226 13 1772 13 1998 0 294 -16
483 -61 633 -150 85 -51 204 -162 265 -248 89 -124 150 -316 175 -545 19 -174
19 -2111 0 -2277 -35 -315 -119 -509 -288 -671 -127 -120 -250 -183 -439 -227
-154 -36 -274 -43 -770 -48 -264 -3 -487 -7 -494 -10 -10 -3 64 -84 215 -235
l229 -230 280 5 c412 8 588 30 803 102 216 71 392 182 547 345 226 236 344
520 387 929 19 180 19 2180 0 2360 -40 385 -150 668 -343 884 -256 287 -540
422 -1004 477 -110 14 -2042 21 -2253 9z"/>
<path d="M3838 4227 c-223 -63 -297 -356 -132 -521 94 -93 238 -116 359 -57
69 34 112 78 148 151 30 63 31 186 1 251 -65 141 -228 217 -376 176z"/>
<path d="M2386 3869 c-201 -28 -400 -104 -576 -222 -96 -64 -273 -241 -337
-337 -101 -151 -171 -319 -210 -500 -25 -118 -25 -382 0 -500 56 -263 171
-482 348 -661 107 -108 129 -128 215 -186 133 -90 289 -155 465 -195 135 -30
387 -32 519 -4 538 112 933 507 1047 1046 25 118 25 382 0 500 -58 274 -173
488 -366 681 -192 192 -409 309 -676 364 -95 20 -332 28 -429 14z m398 -494
c294 -85 502 -293 592 -592 23 -76 27 -106 27 -223 0 -117 -4 -147 -27 -223
-90 -299 -294 -503 -593 -593 -76 -23 -106 -27 -223 -27 -117 0 -147 4 -223
27 -299 90 -503 294 -593 593 -23 76 -27 106 -27 223 0 117 4 147 27 223 86
288 288 496 567 586 146 48 322 50 473 6z"/>
</g>
</svg>
