<?xml version="1.0" standalone="no"?>
<!DOCTYPE svg PUBLIC "-//W3C//DTD SVG 20010904//EN"
 "http://www.w3.org/TR/2001/REC-SVG-20010904/DTD/svg10.dtd">
<svg version="1.0" xmlns="http://www.w3.org/2000/svg"
 width="1160.000000pt" height="772.000000pt" viewBox="0 0 1160.000000 772.000000"
 preserveAspectRatio="xMidYMid meet">

<g transform="translate(0.000000,772.000000) scale(0.100000,-0.100000)"
fill="#000000" stroke="none">
<path d="M3897 4248 c-223 -387 -405 -703 -404 -704 1 -1 63 9 137 22 391 67
856 57 1250 -27 244 -52 514 -144 738 -249 67 -32 122 -57 122 -55 0 6 -229
145 -325 197 -283 153 -604 273 -925 343 -186 41 -431 75 -542 75 -32 0 -58 2
-58 4 0 3 103 182 395 686 l101 175 87 5 87 5 55 95 c38 66 51 97 42 101 -18
10 -207 29 -286 29 l-68 0 -406 -702z"/>
<path d="M7040 4938 c-46 -5 -90 -13 -97 -16 -8 -5 5 -36 45 -105 l57 -97 81
0 c53 0 85 -4 92 -12 13 -16 492 -847 492 -853 0 -3 -26 -5 -57 -5 -213 0
-599 -76 -898 -175 -285 -95 -532 -211 -787 -370 -128 -81 -165 -111 -67 -56
150 84 466 202 695 260 440 112 931 132 1374 57 74 -13 136 -22 137 -22 1 1
-179 317 -401 701 l-404 700 -89 1 c-48 1 -126 -3 -173 -8z"/>
<path d="M4897 4785 l-45 -74 31 -6 c18 -2 77 -12 132 -21 211 -33 465 -108
658 -194 59 -26 107 -46 107 -45 0 2 -53 39 -117 82 -145 97 -293 177 -438
236 -101 41 -260 97 -276 97 -4 0 -28 -34 -52 -75z"/>
<path d="M6515 4816 c-162 -57 -289 -115 -415 -188 -91 -52 -247 -154 -274
-178 -4 -5 47 15 115 45 223 94 440 158 657 190 59 9 117 19 129 21 21 4 21 7
-21 77 -23 39 -49 73 -57 74 -8 1 -68 -17 -134 -41z"/>
</g>
</svg>
