<?xml version="1.0" standalone="no"?>
<!DOCTYPE svg PUBLIC "-//W3C//DTD SVG 20010904//EN"
 "http://www.w3.org/TR/2001/REC-SVG-20010904/DTD/svg10.dtd">
<svg version="1.0" xmlns="http://www.w3.org/2000/svg"
 width="512.000000pt" height="512.000000pt" viewBox="0 0 512.000000 512.000000"
 preserveAspectRatio="xMidYMid meet">
<metadata>
Created by potrace 1.16, written by Peter Selinger 2001-2019
</metadata>
<g transform="translate(0.000000,512.000000) scale(0.100000,-0.100000)"
fill="#000000" stroke="none">
<path d="M3218 4365 c-313 -59 -596 -288 -717 -580 -51 -122 -72 -217 -78
-357 -5 -111 -8 -128 -23 -128 -31 0 -244 41 -342 66 -289 73 -566 206 -772
372 -37 30 -130 111 -205 180 -75 68 -172 153 -216 188 -71 58 -84 64 -125 64
-27 0 -54 -7 -67 -18 -27 -20 -94 -181 -124 -295 -30 -114 -37 -282 -15 -380
21 -92 74 -205 151 -316 32 -46 51 -82 44 -79 -8 3 -40 11 -72 19 -53 11 -62
11 -92 -5 -44 -24 -55 -53 -55 -147 0 -267 137 -506 388 -677 83 -57 80 -62
-34 -62 -146 0 -180 -53 -133 -206 80 -261 253 -420 528 -490 52 -13 96 -26
98 -28 8 -7 -130 -56 -239 -85 -135 -36 -234 -53 -473 -81 -98 -12 -191 -28
-205 -35 -47 -24 -63 -91 -35 -145 20 -38 133 -122 230 -169 378 -185 1082
-300 1515 -247 725 89 1302 453 1713 1081 251 384 411 852 472 1384 9 74 23
149 31 167 10 20 55 63 115 109 109 85 170 151 229 249 48 79 55 105 40 151
-20 60 -84 78 -177 50 -19 -6 -17 3 26 87 74 143 77 219 10 253 -42 22 -76 18
-164 -21 -207 -91 -265 -114 -334 -128 l-74 -15 -72 67 c-107 99 -212 157
-361 198 -83 22 -288 27 -386 9z m307 -210 c39 -8 108 -33 155 -56 69 -34 101
-59 174 -132 l88 -90 97 6 c53 3 127 15 166 26 38 11 71 18 72 17 2 -2 -26
-38 -61 -81 -68 -80 -82 -114 -71 -165 13 -60 94 -89 172 -59 31 11 30 10 -41
-46 -57 -45 -101 -111 -121 -180 -8 -27 -22 -113 -30 -190 -61 -544 -257
-1054 -556 -1447 -82 -107 -262 -293 -364 -375 -431 -347 -982 -509 -1546
-453 -242 24 -587 97 -767 162 l-87 32 135 23 c162 28 333 72 438 114 103 41
401 195 430 223 48 47 29 142 -33 166 -14 5 -96 17 -182 25 -278 28 -383 59
-501 147 -51 38 -132 145 -132 175 0 9 15 13 49 13 68 0 210 26 275 51 69 25
106 67 106 118 0 20 -7 46 -15 59 -9 12 -73 51 -143 86 -251 128 -384 240
-452 381 -22 44 -42 97 -46 117 l-6 37 54 -15 c63 -17 225 -30 262 -20 32 8
66 60 66 101 0 36 -4 42 -134 205 -189 237 -246 354 -246 503 0 65 29 220 48
252 5 10 54 -29 167 -132 253 -231 428 -352 643 -448 270 -119 616 -206 884
-222 l107 -6 30 31 31 31 -6 158 c-7 176 4 258 52 381 134 339 501 548 839
477z"/>
</g>
</svg>
