<?xml version="1.0" standalone="no"?>
<!DOCTYPE svg PUBLIC "-//W3C//DTD SVG 20010904//EN"
 "http://www.w3.org/TR/2001/REC-SVG-20010904/DTD/svg10.dtd">
<svg version="1.0" xmlns="http://www.w3.org/2000/svg"
 width="512.000000pt" height="512.000000pt" viewBox="0 0 512.000000 512.000000"
 preserveAspectRatio="xMidYMid meet">
<metadata>
Created by potrace 1.16, written by Peter Selinger 2001-2019
</metadata>
<g transform="translate(0.000000,512.000000) scale(0.100000,-0.100000)"
fill="#000000" stroke="none">
<path d="M1700 4489 c-403 -13 -859 -39 -955 -54 -167 -27 -297 -86 -414 -190
-91 -80 -142 -151 -192 -263 -60 -138 -96 -295 -116 -517 -25 -275 -26 -1539
-1 -1815 44 -487 172 -732 456 -875 170 -86 363 -110 1097 -135 808 -28 1637
-23 2380 15 431 22 521 36 660 101 294 137 437 403 482 894 25 270 25 1537 1
1811 -44 487 -161 722 -438 881 -69 39 -175 74 -280 91 -308 51 -1846 83
-2680 56z m1064 -1386 c319 -175 598 -333 618 -351 89 -81 86 -227 -8 -298
-18 -14 -293 -165 -611 -336 -525 -283 -583 -312 -634 -316 -84 -6 -149 32
-192 113 -22 40 -22 43 -22 701 l0 661 30 48 c22 36 45 57 85 78 97 51 79 58
734 -300z"/>
<path d="M2200 2616 c0 -256 3 -466 7 -466 12 0 853 453 853 459 -1 5 -399
225 -752 414 l-108 58 0 -465z"/>
</g>
</svg>
