<?xml version="1.0" encoding="utf-8"?>
<!DOCTYPE svg PUBLIC "-//W3C//DTD SVG 20010904//EN" "http://www.w3.org/TR/2001/REC-SVG-20010904/DTD/svg10.dtd">
<svg version="1.0" xmlns="http://www.w3.org/2000/svg" width="512pt" height="511pt" viewBox="0 0 512 511" style="" preserveAspectRatio="xMidYMid meet">
<g fill="#FF3636FF" stroke="#FF3636FF">
<path d="M 251.000 124.809 L 251.000 187.618 292.750 210.471 C 315.713 223.040 335.476 234.038 336.669 234.912 C 342.947 239.508 346.215 249.589 343.996 257.514 C 341.636 265.944 339.383 267.494 294.000 291.921 L 251.500 314.796 251.243 382.898 L 250.986 451.000 280.243 450.457 C 354.585 449.078 422.274 446.097 438.692 443.480 C 456.553 440.633 469.038 434.155 482.000 421.007 C 494.602 408.224 500.858 394.544 505.901 368.743 C 509.676 349.426 510.503 328.697 510.456 254.500 C 510.407 177.366 509.394 157.117 504.563 136.670 C 501.832 125.111 496.770 111.012 493.856 106.846 C 492.835 105.386 492.000 103.896 492.000 103.536 C 492.000 102.198 485.340 94.329 480.500 89.949 C 473.252 83.390 469.059 80.477 461.172 76.518 C 448.376 70.096 434.091 67.808 395.500 65.998 C 383.400 65.430 368.775 64.735 363.000 64.454 C 350.960 63.866 272.869 62.015 259.750 62.006 L 251.000 62.000 251.000 124.809 "/></g>
<g fill="#FF5B5BFF" stroke="#FF5B5BFF">
<path d="M 211.000 62.678 C 155.546 63.587 83.074 67.050 70.996 69.369 C 54.074 72.617 40.492 79.601 28.926 91.000 C 17.272 102.485 10.776 115.399 5.457 137.654 C 0.590 158.018 -0.149 176.347 0.297 265.500 C 0.560 317.841 1.107 349.130 1.881 356.000 C 3.373 369.249 7.759 387.185 11.984 397.318 C 22.840 423.356 44.158 438.742 75.949 443.482 C 90.383 445.634 131.595 447.825 179.000 448.959 C 202.375 449.519 228.138 450.204 236.250 450.481 L 251.000 450.986 251.000 382.948 L 251.000 314.909 239.750 321.022 C 220.039 331.732 216.002 333.433 210.474 333.354 C 202.501 333.241 195.558 328.918 191.903 321.790 C 190.089 318.252 190.000 314.975 190.000 251.356 C 190.000 186.129 190.046 184.536 192.050 180.396 C 195.695 172.867 203.656 168.475 212.352 169.196 C 216.709 169.558 220.650 171.240 233.724 178.320 C 242.540 183.094 250.034 187.000 250.377 187.000 C 250.720 187.000 251.000 158.875 251.000 124.500 L 251.000 62.000 238.250 62.220 C 231.238 62.341 218.975 62.547 211.000 62.678 "/></g>
<g fill="#96FFF6FF" stroke="#96FFF6FF">
<path d="M 251.242 251.378 L 251.500 313.928 292.500 291.864 C 315.050 279.729 334.916 268.732 336.648 267.427 C 345.686 260.614 346.426 245.528 338.119 237.428 C 335.838 235.204 256.657 190.871 251.918 189.164 C 251.345 188.958 251.084 212.999 251.242 251.378 "/></g>
</svg>
